<mxfile host="app.diagrams.net" agent="Mozilla/5.0 (Windows NT 10.0; Win64; x64) AppleWebKit/537.36 (KHTML, like Gecko) Chrome/131.0.0.0 Safari/537.36 Edg/131.0.0.0" version="24.9.2">
  <diagram name="Halaman-1" id="IuEDEG9HTNQi0Q0mBRNn">
    <mxGraphModel dx="872" dy="469" grid="1" gridSize="10" guides="1" tooltips="1" connect="1" arrows="1" fold="1" page="1" pageScale="1" pageWidth="827" pageHeight="1169" math="0" shadow="0">
      <root>
        <mxCell id="0" />
        <mxCell id="1" parent="0" />
        <mxCell id="mqachVrFvuXrussJmTJq-1" value="&lt;font face=&quot;Times New Roman&quot;&gt;Sistem Deteksi&lt;/font&gt;&lt;div&gt;&lt;font face=&quot;Times New Roman&quot;&gt;Kantuk&lt;/font&gt;&lt;/div&gt;" style="ellipse;whiteSpace=wrap;html=1;" vertex="1" parent="1">
          <mxGeometry x="350" y="210" width="120" height="80" as="geometry" />
        </mxCell>
        <mxCell id="mqachVrFvuXrussJmTJq-2" value="&lt;font face=&quot;Times New Roman&quot;&gt;Sistem Deteksi&lt;/font&gt;&lt;div&gt;&lt;font face=&quot;Times New Roman&quot;&gt;Kantuk&lt;/font&gt;&lt;/div&gt;" style="ellipse;whiteSpace=wrap;html=1;" vertex="1" parent="1">
          <mxGeometry x="120" y="210" width="120" height="80" as="geometry" />
        </mxCell>
        <mxCell id="mqachVrFvuXrussJmTJq-9" style="rounded=0;orthogonalLoop=1;jettySize=auto;html=1;" edge="1" parent="1" source="mqachVrFvuXrussJmTJq-3" target="mqachVrFvuXrussJmTJq-1">
          <mxGeometry relative="1" as="geometry" />
        </mxCell>
        <mxCell id="mqachVrFvuXrussJmTJq-3" value="&lt;font face=&quot;Times New Roman&quot;&gt;MRL Eye Dataset&lt;/font&gt;" style="ellipse;whiteSpace=wrap;html=1;" vertex="1" parent="1">
          <mxGeometry x="580" y="150" width="120" height="80" as="geometry" />
        </mxCell>
        <mxCell id="mqachVrFvuXrussJmTJq-4" value="&lt;font face=&quot;Times New Roman&quot;&gt;Metrik Evaluasi&lt;/font&gt;&lt;div&gt;&lt;font face=&quot;Times New Roman&quot;&gt;Model&lt;/font&gt;&lt;/div&gt;" style="ellipse;whiteSpace=wrap;html=1;" vertex="1" parent="1">
          <mxGeometry x="350" y="350" width="120" height="80" as="geometry" />
        </mxCell>
        <mxCell id="mqachVrFvuXrussJmTJq-5" value="&lt;font face=&quot;Times New Roman&quot;&gt;Akurasi Model&lt;/font&gt;" style="ellipse;whiteSpace=wrap;html=1;" vertex="1" parent="1">
          <mxGeometry x="350" y="480" width="120" height="80" as="geometry" />
        </mxCell>
        <mxCell id="mqachVrFvuXrussJmTJq-10" style="rounded=0;orthogonalLoop=1;jettySize=auto;html=1;entryX=1;entryY=0.5;entryDx=0;entryDy=0;" edge="1" parent="1" source="mqachVrFvuXrussJmTJq-6" target="mqachVrFvuXrussJmTJq-1">
          <mxGeometry relative="1" as="geometry" />
        </mxCell>
        <mxCell id="mqachVrFvuXrussJmTJq-6" value="&lt;font face=&quot;Times New Roman&quot;&gt;Yawn Dataset&lt;/font&gt;" style="ellipse;whiteSpace=wrap;html=1;" vertex="1" parent="1">
          <mxGeometry x="580" y="270" width="120" height="80" as="geometry" />
        </mxCell>
        <mxCell id="mqachVrFvuXrussJmTJq-7" value="[1]" style="text;html=1;align=center;verticalAlign=middle;whiteSpace=wrap;rounded=0;" vertex="1" parent="1">
          <mxGeometry x="690" y="175" width="60" height="30" as="geometry" />
        </mxCell>
        <mxCell id="mqachVrFvuXrussJmTJq-8" value="[2]" style="text;html=1;align=center;verticalAlign=middle;whiteSpace=wrap;rounded=0;" vertex="1" parent="1">
          <mxGeometry x="690" y="290" width="60" height="30" as="geometry" />
        </mxCell>
        <mxCell id="mqachVrFvuXrussJmTJq-11" value="[3] Lim, Ng K. W., dan Ng S. L." style="text;html=1;align=center;verticalAlign=middle;whiteSpace=wrap;rounded=0;" vertex="1" parent="1">
          <mxGeometry x="80" y="50" width="170" height="30" as="geometry" />
        </mxCell>
        <mxCell id="mqachVrFvuXrussJmTJq-12" value="[3]" style="text;html=1;align=center;verticalAlign=middle;whiteSpace=wrap;rounded=0;" vertex="1" parent="1">
          <mxGeometry x="490" y="230" width="20" height="30" as="geometry" />
        </mxCell>
      </root>
    </mxGraphModel>
  </diagram>
</mxfile>
